<mxfile host="app.diagrams.net" modified="2024-01-19T15:18:48.472Z" agent="Mozilla/5.0 (Windows NT 10.0; Win64; x64) AppleWebKit/537.36 (KHTML, like Gecko) Chrome/120.0.0.0 Safari/537.36" version="22.1.21" etag="cp5HJoW-ex0W4yCd1kN8" type="github">
  <diagram name="PÃ¡gina-1" id="cZ8t3PxzRvMCsG7ATm6e">
    <mxGraphModel>
      <root>
        <mxCell id="0" />
        <mxCell id="1" parent="0" />
      </root>
    </mxGraphModel>
  </diagram>
</mxfile>
